<svg width="25" height="24" viewBox="0 0 25 24" fill="none" xmlns="http://www.w3.org/2000/svg">
<g opacity="0.3">
<path fill-rule="evenodd" clip-rule="evenodd" d="M5.00363 11.8078C4.9077 11.9574 4.82804 12.0907 4.76412 12.2026C4.82804 12.3146 4.9077 12.4478 5.00363 12.5974C5.31521 13.0832 5.7924 13.7315 6.45062 14.3777C7.76259 15.6656 9.76128 16.919 12.6197 16.919C15.4781 16.919 17.4768 15.6656 18.7888 14.3777C19.447 13.7315 19.9242 13.0832 20.2358 12.5974C20.3317 12.4478 20.4114 12.3146 20.4753 12.2026C20.4114 12.0907 20.3317 11.9574 20.2358 11.8078C19.9242 11.3221 19.447 10.6737 18.7888 10.0276C17.4768 8.73965 15.4781 7.48627 12.6197 7.48627C9.76128 7.48627 7.76259 8.73965 6.45062 10.0276C5.7924 10.6737 5.31521 11.3221 5.00363 11.8078ZM22.5035 12.575C22.5037 12.5746 22.5039 12.5742 21.588 12.2026L22.5039 12.5742C22.6113 12.3369 22.6113 12.0683 22.5039 11.831L21.588 12.2026C22.5039 11.831 22.5037 11.8306 22.5035 11.8302L22.5031 11.8292L22.502 11.8269L22.4992 11.8207L22.4906 11.8023C22.4835 11.7873 22.4738 11.767 22.4615 11.7418C22.4368 11.6915 22.4013 11.6213 22.3548 11.5342C22.2619 11.36 22.1244 11.1173 21.9393 10.8288C21.5703 10.2534 21.0065 9.4868 20.2234 8.71805C18.6527 7.17615 16.1672 5.59973 12.6197 5.59973C9.07217 5.59973 6.58671 7.17615 5.01601 8.71805C4.2329 9.4868 3.66912 10.2534 3.30007 10.8288C3.11503 11.1173 2.97746 11.36 2.88454 11.5342C2.83805 11.6213 2.80262 11.6915 2.77791 11.7418C2.76555 11.767 2.75587 11.7873 2.74881 11.8023L2.74019 11.8207L2.73735 11.8269L2.73629 11.8292L2.73585 11.8302C2.73566 11.8306 2.73548 11.831 3.65135 12.2026L2.73548 11.831C2.62805 12.0683 2.62805 12.3369 2.73548 12.5742L3.65135 12.2026C2.73548 12.5742 2.73566 12.5746 2.73585 12.575L2.73629 12.576L2.73735 12.5783L2.74019 12.5845L2.74881 12.603C2.75587 12.6179 2.76555 12.6382 2.77791 12.6634C2.80262 12.7138 2.83805 12.7839 2.88454 12.8711C2.97746 13.0452 3.11503 13.288 3.30007 13.5765C3.66912 14.1519 4.2329 14.9184 5.01601 15.6872C6.58671 17.2291 9.07217 18.8055 12.6197 18.8055C16.1672 18.8055 18.6527 17.2291 20.2234 15.6872C21.0065 14.9184 21.5703 14.1519 21.9393 13.5765C22.1244 13.288 22.2619 13.0452 22.3548 12.8711C22.4013 12.7839 22.4368 12.7138 22.4615 12.6634C22.4738 12.6382 22.4835 12.6179 22.4906 12.603L22.4992 12.5845L22.502 12.5783L22.5031 12.576L22.5035 12.575ZM12.6197 14.0892C11.519 14.0892 10.6267 13.2445 10.6267 12.2026C10.6267 11.1607 11.519 10.3161 12.6197 10.3161C13.7204 10.3161 14.6127 11.1607 14.6127 12.2026C14.6127 13.2445 13.7204 14.0892 12.6197 14.0892ZM8.63378 12.2026C8.63378 10.1188 10.4183 8.42954 12.6197 8.42954C14.8211 8.42954 16.6056 10.1188 16.6056 12.2026C16.6056 14.2864 14.8211 15.9757 12.6197 15.9757C10.4183 15.9757 8.63378 14.2864 8.63378 12.2026Z" fill="black"/>
</g>
</svg>
